<?xml version="1.0" standalone="no"?>
<!DOCTYPE svg PUBLIC "-//W3C//DTD SVG 20010904//EN"
 "http://www.w3.org/TR/2001/REC-SVG-20010904/DTD/svg10.dtd">
<svg version="1.0" xmlns="http://www.w3.org/2000/svg"
 width="312.000000pt" height="161.000000pt" viewBox="0 0 312.000000 161.000000"
 preserveAspectRatio="xMidYMid meet">

<g transform="translate(0.000000,161.000000) scale(0.100000,-0.100000)"
fill="#000000" stroke="none">
<path d="M1966 1584 c-31 -31 -20 -72 39 -150 18 -23 45 -78 59 -121 14 -43
38 -95 51 -116 25 -36 25 -37 10 -96 -28 -110 -12 -228 40 -283 47 -50 84 -31
93 47 2 25 8 45 12 45 4 0 15 -17 24 -39 10 -21 43 -63 74 -92 31 -30 47 -43
36 -29 -34 41 -81 121 -109 184 -21 48 -28 56 -40 46 -15 -13 -30 -54 -40
-113 -7 -45 -22 -44 -50 4 -25 42 -28 179 -5 252 9 32 11 52 5 61 -39 53 -51
76 -76 146 -15 44 -46 105 -68 136 -43 60 -51 91 -26 100 19 8 91 -21 132 -52
22 -17 45 -24 76 -24 74 0 177 -59 278 -159 92 -91 80 -72 218 -363 l41 -86
61 -21 c59 -20 175 -88 199 -116 8 -10 -2 -14 -50 -19 -78 -9 -120 -24 -120
-44 0 -23 72 -87 133 -117 30 -14 70 -37 88 -51 18 -13 35 -24 38 -24 13 0
-90 96 -138 128 -30 21 -56 42 -58 48 -4 11 42 25 129 39 35 5 37 7 25 26 -20
33 -127 112 -202 149 -70 35 -70 35 -115 125 -25 50 -59 122 -77 160 -76 167
-262 328 -411 355 -35 6 -91 27 -126 46 -69 37 -124 44 -150 18z"/>
<path d="M2198 1380 c19 -34 32 -39 32 -12 0 21 -18 42 -37 42 -9 0 -7 -8 5
-30z"/>
<path d="M50 613 c-37 -13 -40 -32 -40 -250 l0 -213 50 0 51 0 -3 195 c-2 107
0 195 3 195 3 0 41 -79 84 -176 43 -97 86 -185 96 -197 24 -30 109 -31 138 -2
11 11 54 99 96 195 43 96 81 179 86 185 5 5 9 -76 9 -193 l0 -202 45 0 45 0 0
219 c0 187 -2 220 -16 232 -23 19 -125 23 -147 5 -10 -8 -54 -95 -98 -193 -44
-98 -84 -181 -87 -185 -4 -4 -43 76 -87 178 -45 104 -89 192 -100 200 -19 14
-95 18 -125 7z"/>
<path d="M1473 603 c9 -2 25 -2 35 0 9 3 1 5 -18 5 -19 0 -27 -2 -17 -5z"/>
<path d="M2073 603 c43 -2 110 -2 150 0 40 1 5 3 -78 3 -82 0 -115 -2 -72 -3z"/>
<path d="M2554 430 c0 -102 2 -143 3 -92 2 50 2 134 0 185 -1 50 -3 9 -3 -93z"/>
<path d="M1406 579 c-14 -11 -26 -26 -25 -32 0 -8 3 -7 6 1 3 8 19 22 37 33
17 10 26 19 20 19 -6 0 -23 -9 -38 -21z"/>
<path d="M1924 574 c-18 -14 -18 -15 4 -4 12 6 22 13 22 15 0 8 -5 6 -26 -11z"/>
<path d="M2355 570 c10 -11 20 -20 23 -20 3 0 -3 9 -13 20 -10 11 -20 20 -23
20 -3 0 3 -9 13 -20z"/>
<path d="M1487 553 c-3 -5 47 -7 111 -5 208 4 231 8 60 10 -92 1 -169 -1 -171
-5z"/>
<path d="M2155 551 c66 -3 127 -10 135 -14 8 -5 6 -1 -4 7 -16 13 -43 16 -135
14 l-116 -2 120 -5z"/>
<path d="M1371 484 c-1 -37 4 -57 17 -71 9 -10 13 -12 7 -4 -5 8 -13 39 -16
70 l-6 56 -2 -51z"/>
<path d="M1463 485 c0 -27 2 -38 4 -22 2 15 2 37 0 50 -2 12 -4 0 -4 -28z"/>
<path d="M1892 480 c0 -14 2 -19 5 -12 2 6 2 18 0 25 -3 6 -5 1 -5 -13z"/>
<path d="M805 347 c0 -135 3 -145 59 -175 24 -12 67 -17 179 -20 146 -4 147
-4 147 -27 0 -50 -17 -55 -206 -55 l-174 0 0 -30 0 -30 185 0 c148 0 193 3
226 17 63 25 69 49 69 263 l0 180 -50 0 -50 0 0 -130 0 -130 -133 0 c-90 0
-137 4 -145 12 -8 8 -12 52 -12 130 l0 118 -47 0 -48 0 0 -123z"/>
<path d="M1892 400 c0 -19 2 -27 5 -17 2 9 2 25 0 35 -3 9 -5 1 -5 -18z"/>
<path d="M1558 403 c28 -2 76 -2 105 0 28 2 5 3 -53 3 -58 0 -81 -1 -52 -3z"/>
<path d="M1780 376 c0 -2 8 -10 18 -17 15 -13 16 -12 3 4 -13 16 -21 21 -21
13z"/>
<path d="M1483 363 c9 -2 23 -2 30 0 6 3 -1 5 -18 5 -16 0 -22 -2 -12 -5z"/>
<path d="M1670 356 c0 -2 9 -6 20 -9 11 -3 18 -1 14 4 -5 9 -34 13 -34 5z"/>
<path d="M1892 330 c0 -19 2 -27 5 -17 2 9 2 25 0 35 -3 9 -5 1 -5 -18z"/>
<path d="M1810 278 c-3 -37 -1 -63 3 -59 4 4 7 35 5 67 l-3 59 -5 -67z"/>
<path d="M1892 270 c0 -14 2 -19 5 -12 2 6 2 18 0 25 -3 6 -5 1 -5 -13z"/>
<path d="M3058 275 c18 -8 36 -24 42 -37 6 -16 9 -18 9 -6 1 19 -45 58 -68 58
-9 -1 -1 -7 17 -15z"/>
<path d="M2215 260 c10 -11 20 -20 23 -20 3 0 -3 9 -13 20 -10 11 -20 20 -23
20 -3 0 3 -9 13 -20z"/>
<path d="M2989 263 c-13 -17 -13 -17 6 -3 11 8 22 16 24 17 2 2 0 3 -6 3 -6 0
-17 -8 -24 -17z"/>
<path d="M2145 240 c10 -11 20 -20 23 -20 3 0 -3 9 -13 20 -10 11 -20 20 -23
20 -3 0 3 -9 13 -20z"/>
<path d="M3060 237 c0 -8 -10 -18 -22 -20 l-23 -4 23 -2 c22 -1 41 23 28 36
-3 4 -6 -1 -6 -10z"/>
<path d="M2377 221 c-4 -17 -3 -21 5 -13 5 5 8 16 6 23 -3 8 -7 3 -11 -10z"/>
<path d="M2579 221 c21 -19 36 -21 172 -21 142 0 149 -1 149 -20 0 -18 -8 -20
-157 -23 l-158 -3 163 -2 162 -2 0 30 0 30 -153 0 c-122 0 -158 3 -177 16
l-25 16 24 -21z"/>
<path d="M2972 215 c0 -16 2 -22 5 -12 2 9 2 23 0 30 -3 6 -5 -1 -5 -18z"/>
<path d="M1900 223 c0 -5 12 -20 28 -34 l27 -24 -25 30 c-14 17 -26 32 -27 34
-2 2 -3 0 -3 -6z"/>
<path d="M1370 180 l0 -30 173 2 172 2 -167 3 c-159 3 -168 5 -168 23 0 18 9
20 153 23 l152 3 -157 2 -158 2 0 -30z"/>
<path d="M2068 203 c17 -2 47 -2 65 0 17 2 3 4 -33 4 -36 0 -50 -2 -32 -4z"/>
<path d="M3101 198 c-1 -9 -11 -24 -23 -32 -12 -9 -18 -16 -12 -16 17 0 47 38
41 52 -4 9 -6 7 -6 -4z"/>
<path d="M1745 175 c-16 -8 -23 -14 -14 -15 8 0 24 7 35 15 23 18 18 18 -21 0z"/>
<path d="M2517 179 c7 -7 15 -10 18 -7 3 3 -2 9 -12 12 -14 6 -15 5 -6 -5z"/>
<path d="M2992 164 c10 -10 20 -16 22 -13 3 3 -5 11 -17 18 -21 13 -21 12 -5
-5z"/>
<path d="M2053 153 c37 -2 96 -2 130 0 34 2 4 3 -68 3 -71 0 -99 -1 -62 -3z"/>
<path d="M2281 117 c33 -36 38 -38 88 -35 l53 3 -29 25 c-24 21 -25 22 -9 3
l19 -23 -43 0 c-36 0 -51 6 -80 32 l-35 33 36 -38z"/>
</g>
</svg>
