<?xml version="1.0" standalone="no"?>
<!DOCTYPE svg PUBLIC "-//W3C//DTD SVG 20010904//EN"
 "http://www.w3.org/TR/2001/REC-SVG-20010904/DTD/svg10.dtd">
<svg version="1.0" xmlns="http://www.w3.org/2000/svg"
 width="166.000000pt" height="304.000000pt" viewBox="0 0 166.000000 304.000000"
 preserveAspectRatio="xMidYMid meet">

<g transform="translate(0.000000,304.000000) scale(0.100000,-0.100000)"
fill="#000000" stroke="none">
<path d="M1355 1889 c-19 -9 -18 -9 3 -5 67 13 152 -54 152 -120 0 -72 -63
-151 -175 -219 -71 -44 -41 -37 70 15 94 44 146 91 171 155 17 45 17 48 -2 93
-15 38 -28 52 -64 70 -46 23 -118 28 -155 11z"/>
<path d="M435 1860 c-96 -25 -185 -65 -185 -84 0 -34 195 -66 405 -66 222 0
490 35 548 71 l32 20 -30 -5 c-234 -42 -659 -56 -777 -25 -69 18 -40 55 69 89
76 25 30 25 -62 0z"/>
<path d="M454 1621 c-18 -11 -35 -24 -38 -29 -41 -67 228 -119 484 -93 104 11
243 36 263 48 5 3 -6 15 -24 27 -31 21 -34 21 -108 7 -103 -20 -450 -22 -504
-2 -33 11 -38 17 -34 37 5 29 1 29 -39 5z"/>
<path d="M513 1404 c-138 -68 126 -162 377 -134 98 11 200 34 234 52 18 10 15
13 -28 35 -46 24 -51 24 -120 11 -93 -17 -337 -15 -391 4 -27 9 -40 19 -39 31
1 9 1 17 0 17 0 0 -15 -8 -33 -16z"/>
<path d="M274 1265 c-100 -22 -184 -70 -184 -107 0 -26 34 -37 190 -61 189
-29 698 -31 865 -4 240 39 368 91 349 141 -6 15 -8 14 -18 -6 -35 -72 -296
-112 -726 -111 -259 0 -402 13 -495 46 -75 26 -49 64 68 98 72 21 40 23 -49 4z"/>
<path d="M1550 1120 c-57 -41 -248 -89 -445 -111 -120 -14 -469 -18 -605 -7
l-85 6 65 -15 c104 -24 620 -24 765 0 154 26 253 59 301 101 42 37 45 56 4 26z"/>
<path d="M140 515 c0 -346 -2 -360 -59 -407 -36 -31 -38 -39 -12 -62 17 -16
22 -16 48 -2 23 11 73 59 105 99 1 1 4 156 7 345 l6 342 -47 0 -48 0 0 -315z"/>
<path d="M412 655 c-63 -15 -76 -26 -67 -55 5 -15 12 -19 23 -15 10 4 40 11
68 16 94 18 153 -20 154 -97 l0 -31 -72 -5 c-137 -10 -201 -57 -202 -148 -1
-26 5 -59 13 -73 34 -63 152 -75 230 -24 l40 26 3 -22 c2 -17 11 -23 36 -25
l32 -3 0 195 c0 194 0 195 -26 225 -42 50 -124 63 -232 36z m176 -297 c-3 -61
-4 -63 -43 -85 -22 -12 -53 -23 -68 -23 -37 0 -77 40 -77 77 0 61 46 90 143
92 l48 1 -3 -62z"/>
<path d="M1325 664 c-103 -24 -105 -25 -105 -56 0 -23 4 -28 18 -24 58 19 128
25 163 16 45 -12 59 -33 59 -88 l0 -39 -72 -5 c-125 -8 -198 -64 -198 -151 0
-79 50 -127 132 -127 43 0 120 29 132 49 12 19 26 12 26 -14 0 -22 4 -25 35
-25 l35 0 0 180 c0 204 -8 238 -61 265 -32 17 -127 28 -164 19z m135 -308 l0
-64 -43 -21 c-49 -24 -69 -26 -100 -10 -30 16 -37 28 -37 70 0 57 46 86 138
88 l42 1 0 -64z"/>
<path d="M743 647 c2 -7 30 -95 61 -197 32 -102 62 -200 67 -217 10 -32 12
-33 69 -33 l58 0 22 52 c35 80 58 153 84 258 42 169 44 150 -14 150 -48 0 -50
-1 -50 -27 0 -54 -76 -343 -90 -343 -4 0 -10 15 -14 33 -3 17 -27 101 -53 185
l-46 152 -50 0 c-35 0 -48 -4 -44 -13z"/>
</g>
</svg>
