<?xml version="1.0" standalone="no"?>
<!DOCTYPE svg PUBLIC "-//W3C//DTD SVG 20010904//EN"
 "http://www.w3.org/TR/2001/REC-SVG-20010904/DTD/svg10.dtd">
<svg version="1.0" xmlns="http://www.w3.org/2000/svg"
 width="212.000000pt" height="238.000000pt" viewBox="0 0 212.000000 238.000000"
 preserveAspectRatio="xMidYMid meet">

<g transform="translate(0.000000,238.000000) scale(0.100000,-0.100000)"
fill="#000000" stroke="none">
<path d="M1880 1661 c-231 -134 -416 -241 -833 -479 -158 -90 -287 -169 -287
-174 0 -21 97 -110 149 -135 49 -25 68 -28 151 -28 84 0 102 3 152 28 34 17
77 50 108 84 l51 55 147 -85 c81 -46 147 -90 147 -96 0 -23 -93 -136 -150
-183 -69 -56 -214 -130 -295 -149 -71 -18 -250 -17 -320 0 -139 34 -306 138
-383 238 -23 30 -49 65 -58 76 -16 21 -18 20 -223 -97 -113 -65 -206 -122
-206 -125 0 -24 116 -97 515 -327 l450 -259 65 0 65 0 450 259 c283 162 464
272 487 296 20 21 41 55 47 76 16 56 15 1053 -1 1105 -6 22 -14 39 -17 39 -4
0 -99 -54 -211 -119z m-190 -391 l0 -40 40 0 40 0 0 -40 0 -40 -40 0 -40 0 0
-40 0 -40 -40 0 -40 0 0 40 0 40 -40 0 -40 0 0 40 0 40 40 0 40 0 0 40 0 40
40 0 40 0 0 -40z m295 -3 c0 -36 1 -37 38 -37 37 0 37 0 37 -40 0 -39 -1 -40
-34 -40 -33 0 -35 -2 -38 -37 -3 -37 -4 -38 -45 -41 l-43 -3 0 40 0 41 -40 0
-40 0 0 40 0 40 40 0 40 0 0 41 0 40 43 -3 c41 -3 42 -4 42 -41z"/>
</g>
</svg>
