<?xml version="1.0" standalone="no"?>
<!DOCTYPE svg PUBLIC "-//W3C//DTD SVG 20010904//EN"
 "http://www.w3.org/TR/2001/REC-SVG-20010904/DTD/svg10.dtd">
<svg version="1.0" xmlns="http://www.w3.org/2000/svg"
 width="214.000000pt" height="235.000000pt" viewBox="0 0 214.000000 235.000000"
 preserveAspectRatio="xMidYMid meet">

<g transform="translate(0.000000,235.000000) scale(0.100000,-0.100000)"
fill="#000000" stroke="none">
<path d="M985 2336 c-39 -17 -176 -30 -155 -15 11 8 1 9 -35 4 -27 -4 -54 -11
-60 -17 -7 -7 0 -9 23 -4 21 4 31 2 27 -5 -4 -6 2 -8 18 -4 14 4 28 2 31 -3 4
-6 -3 -8 -16 -5 -19 4 -20 3 -8 -7 12 -9 10 -10 -10 -4 -14 4 -32 9 -40 12
-13 5 -13 4 0 -9 9 -9 22 -18 30 -21 8 -2 -5 -5 -30 -6 -25 0 -54 -3 -65 -6
-11 -2 -23 -5 -27 -5 -14 -2 -8 -21 6 -21 9 0 12 -7 9 -19 -3 -11 -11 -17 -19
-14 -9 3 -12 -2 -9 -16 2 -12 -1 -21 -7 -21 -5 0 -8 6 -5 14 3 8 -1 20 -9 26
-8 7 -14 9 -14 5 0 -4 -7 -2 -15 5 -8 6 -20 8 -27 4 -7 -4 -5 2 5 14 11 11 25
18 33 15 8 -3 14 0 14 7 0 6 -4 8 -10 5 -17 -10 -11 7 8 22 15 13 15 13 -5 4
-12 -6 -31 -23 -43 -38 l-21 -27 21 -16 c16 -12 19 -22 14 -46 -7 -37 20 -57
31 -23 6 18 25 27 25 11 0 -17 -31 -51 -43 -46 -7 2 -17 -6 -22 -18 -6 -12
-16 -24 -24 -26 -11 -4 -13 5 -8 46 3 28 2 54 -3 57 -5 3 -9 -45 -9 -112 1
-78 5 -120 12 -125 9 -6 9 -8 0 -8 -7 0 -13 -4 -13 -10 0 -6 90 -10 250 -10
l250 0 0 -35 0 -35 -377 -1 c-208 -1 -389 -4 -403 -8 -14 -4 29 -7 95 -6 66 1
94 0 62 -2 -31 -2 -57 -9 -57 -14 0 -6 -4 -7 -10 -4 -5 3 -10 -1 -10 -10 0 -9
-4 -13 -10 -10 -5 3 -10 2 -10 -3 0 -5 -7 -9 -15 -9 -9 0 -14 6 -11 14 3 7 1
13 -5 13 -6 0 -9 -10 -7 -22 2 -16 9 -22 20 -20 10 2 18 -2 18 -8 0 -12 -39
-16 -102 -10 -16 1 -18 3 -8 7 22 9 30 25 20 44 -5 9 -6 20 -2 24 4 4 -5 1
-20 -6 -16 -7 -28 -17 -28 -22 0 -5 6 -4 14 2 10 9 17 7 27 -6 12 -15 12 -16
-3 -10 -11 4 -17 2 -15 -6 1 -7 -7 -12 -18 -12 -11 0 -19 6 -17 13 2 9 -8 6
-28 -8 -32 -23 -40 -36 -15 -26 8 3 15 0 15 -7 0 -7 5 -5 10 5 6 9 18 14 29
11 15 -4 20 -16 23 -50 3 -38 -1 -48 -19 -63 -13 -10 -23 -23 -23 -29 0 -6 -9
-16 -20 -23 -11 -7 -20 -18 -20 -24 0 -14 -33 -14 -42 0 -4 6 -6 -9 -4 -33 l4
-45 -20 32 c-22 35 -21 67 2 67 9 0 15 11 17 28 1 15 -2 25 -8 22 -5 -4 -9 -1
-9 6 0 7 -2 10 -5 7 -3 -3 -1 -18 5 -34 10 -28 9 -28 -6 -9 -13 16 -15 16 -11
3 3 -10 2 -20 -3 -23 -14 -9 -22 -79 -10 -105 9 -21 10 -18 6 20 l-5 45 14
-35 c7 -19 13 -53 13 -75 0 -38 -1 -39 -8 -10 -4 17 -9 23 -10 15 -1 -8 -8 -2
-15 15 -14 30 -14 29 -16 -30 -5 -131 7 -246 37 -353 8 -29 19 -50 23 -47 5 3
7 -3 4 -13 -7 -27 69 -117 120 -144 34 -17 64 -22 160 -26 l117 -4 0 140 c0
162 15 219 75 289 19 22 31 44 27 48 -4 3 -2 5 3 4 6 -2 35 10 65 26 l55 30
325 5 c317 5 326 6 370 29 61 31 105 83 125 146 14 45 16 95 13 336 -3 327 -5
335 -99 409 -59 47 -121 67 -227 75 -42 3 -102 7 -132 10 -32 2 -68 -2 -85 -9z
m-200 -106 c-27 -12 -43 -12 -25 0 8 5 22 9 30 9 10 0 8 -3 -5 -9z m22 -45
c17 -12 23 -12 27 -2 3 6 3 2 0 -10 -2 -12 1 -27 9 -34 11 -10 12 -22 5 -49
-6 -19 -10 -43 -11 -52 -1 -9 -4 -16 -7 -15 -3 0 -22 -5 -42 -12 -20 -6 -45
-11 -55 -9 -10 2 -17 -2 -16 -9 2 -7 -4 -10 -13 -6 -10 4 -12 8 -5 13 7 4 2
15 -14 30 -14 13 -25 35 -25 49 0 21 -2 23 -10 11 -14 -22 -12 -8 5 33 8 19
12 37 10 41 -3 3 -2 4 1 1 4 -2 18 5 32 15 29 24 79 26 109 5z m66 -90 c-3 -9
-8 -14 -10 -11 -3 3 -2 9 2 15 9 16 15 13 8 -4z m-193 -89 c0 -6 -4 -5 -9 3
-5 7 -13 11 -18 8 -5 -3 -9 3 -9 13 0 18 2 18 18 3 10 -9 18 -21 18 -27z m-25
-35 c3 -5 1 -12 -5 -16 -5 -3 -10 1 -10 9 0 18 6 21 15 7z m60 -11 c3 -6 -1
-7 -9 -4 -18 7 -21 14 -7 14 6 0 13 -4 16 -10z m-672 -630 c3 -11 1 -20 -4
-20 -5 0 -9 9 -9 20 0 11 2 20 4 20 2 0 6 -9 9 -20z m14 -92 c-3 -8 -6 -5 -6
6 -1 11 2 17 5 13 3 -3 4 -12 1 -19z"/>
<path d="M878 2333 c18 -2 45 -2 60 0 15 2 0 4 -33 4 -33 0 -45 -2 -27 -4z"/>
<path d="M680 2299 c-20 -8 -22 -12 -10 -19 21 -13 38 -12 20 1 -11 8 -7 9 18
5 29 -5 31 -4 18 9 -8 8 -16 15 -18 14 -2 0 -14 -5 -28 -10z"/>
<path d="M600 2221 c0 -5 5 -13 10 -16 6 -3 10 -2 10 4 0 5 -4 13 -10 16 -5 3
-10 2 -10 -4z"/>
<path d="M635 2219 c-4 -6 -5 -12 -2 -15 2 -3 7 2 10 11 7 17 1 20 -8 4z"/>
<path d="M93 1678 c-22 -29 -24 -41 -3 -20 12 13 20 25 17 28 -2 2 -9 -1 -14
-8z"/>
<path d="M110 1655 c-9 -10 -9 -15 -1 -15 6 0 11 -16 11 -35 0 -20 5 -35 12
-35 6 0 9 3 6 6 -4 3 0 17 7 31 18 33 9 59 -13 41 -13 -11 -15 -10 -9 5 8 21
3 22 -13 2z"/>
</g>
</svg>
